<mxfile host="app.diagrams.net" agent="Mozilla/5.0 (Windows NT 10.0; Win64; x64) AppleWebKit/537.36 (KHTML, like Gecko) Chrome/134.0.0.0 Safari/537.36" version="26.1.1">
  <diagram name="第 1 页" id="w3NQx6bVNloSjSH93vuA">
    <mxGraphModel dx="1221" dy="725" grid="1" gridSize="10" guides="1" tooltips="1" connect="1" arrows="1" fold="1" page="1" pageScale="1" pageWidth="827" pageHeight="1169" math="0" shadow="0">
      <root>
        <mxCell id="0" />
        <mxCell id="1" parent="0" />
        <mxCell id="3_gyoDuBZ4l5B2LdeUut-1" value="账号" style="rounded=0;whiteSpace=wrap;html=1;fontSize=16;" vertex="1" parent="1">
          <mxGeometry x="120" y="240" width="120" height="60" as="geometry" />
        </mxCell>
        <mxCell id="3_gyoDuBZ4l5B2LdeUut-7" style="edgeStyle=orthogonalEdgeStyle;rounded=0;orthogonalLoop=1;jettySize=auto;html=1;entryX=0;entryY=0.5;entryDx=0;entryDy=0;" edge="1" parent="1" source="3_gyoDuBZ4l5B2LdeUut-2" target="3_gyoDuBZ4l5B2LdeUut-3">
          <mxGeometry relative="1" as="geometry" />
        </mxCell>
        <mxCell id="3_gyoDuBZ4l5B2LdeUut-2" value="关联" style="strokeWidth=2;html=1;shape=mxgraph.flowchart.decision;whiteSpace=wrap;fontSize=16;" vertex="1" parent="1">
          <mxGeometry x="330" y="220" width="100" height="100" as="geometry" />
        </mxCell>
        <mxCell id="3_gyoDuBZ4l5B2LdeUut-3" value="账号_文件" style="rounded=0;whiteSpace=wrap;html=1;fontSize=16;" vertex="1" parent="1">
          <mxGeometry x="520" y="240" width="120" height="60" as="geometry" />
        </mxCell>
        <mxCell id="3_gyoDuBZ4l5B2LdeUut-4" value="关联" style="strokeWidth=2;html=1;shape=mxgraph.flowchart.decision;whiteSpace=wrap;fontSize=16;" vertex="1" parent="1">
          <mxGeometry x="737" y="220" width="100" height="100" as="geometry" />
        </mxCell>
        <mxCell id="3_gyoDuBZ4l5B2LdeUut-9" style="edgeStyle=orthogonalEdgeStyle;rounded=0;orthogonalLoop=1;jettySize=auto;html=1;" edge="1" parent="1" source="3_gyoDuBZ4l5B2LdeUut-5" target="3_gyoDuBZ4l5B2LdeUut-4">
          <mxGeometry relative="1" as="geometry" />
        </mxCell>
        <mxCell id="3_gyoDuBZ4l5B2LdeUut-5" value="文件" style="rounded=0;whiteSpace=wrap;html=1;fontSize=16;" vertex="1" parent="1">
          <mxGeometry x="727" y="430" width="120" height="60" as="geometry" />
        </mxCell>
        <mxCell id="3_gyoDuBZ4l5B2LdeUut-6" style="edgeStyle=orthogonalEdgeStyle;rounded=0;orthogonalLoop=1;jettySize=auto;html=1;entryX=0;entryY=0.5;entryDx=0;entryDy=0;entryPerimeter=0;" edge="1" parent="1" source="3_gyoDuBZ4l5B2LdeUut-1" target="3_gyoDuBZ4l5B2LdeUut-2">
          <mxGeometry relative="1" as="geometry" />
        </mxCell>
        <mxCell id="3_gyoDuBZ4l5B2LdeUut-8" style="edgeStyle=orthogonalEdgeStyle;rounded=0;orthogonalLoop=1;jettySize=auto;html=1;entryX=0;entryY=0.5;entryDx=0;entryDy=0;entryPerimeter=0;" edge="1" parent="1" source="3_gyoDuBZ4l5B2LdeUut-3" target="3_gyoDuBZ4l5B2LdeUut-4">
          <mxGeometry relative="1" as="geometry" />
        </mxCell>
      </root>
    </mxGraphModel>
  </diagram>
</mxfile>
